<mxfile host="app.diagrams.net" modified="2021-03-08T04:08:10.628Z" agent="5.0 (Windows NT 10.0; Win64; x64) AppleWebKit/537.36 (KHTML, like Gecko) Chrome/89.0.4389.72 Safari/537.36 Edg/89.0.774.45" etag="13zJeDGO9NbH-58zl5hC" version="14.4.4" type="github">
  <diagram id="0odnrXZAJHz_oo89ADCb" name="Page-1">
    <mxGraphModel dx="1185" dy="662" grid="1" gridSize="10" guides="1" tooltips="1" connect="1" arrows="1" fold="1" page="1" pageScale="1" pageWidth="850" pageHeight="1100" math="0" shadow="0">
      <root>
        <mxCell id="0" />
        <mxCell id="1" parent="0" />
        <mxCell id="r2FGRi74jd80nOv4xDd8-11" style="edgeStyle=orthogonalEdgeStyle;rounded=0;orthogonalLoop=1;jettySize=auto;html=1;" edge="1" parent="1" source="r2FGRi74jd80nOv4xDd8-12">
          <mxGeometry relative="1" as="geometry">
            <mxPoint x="257" y="740" as="targetPoint" />
          </mxGeometry>
        </mxCell>
        <mxCell id="r2FGRi74jd80nOv4xDd8-12" value="&lt;b&gt;word_1&lt;/b&gt;" style="rounded=0;whiteSpace=wrap;html=1;strokeWidth=2;fillColor=#fff2cc;strokeColor=#d6b656;" vertex="1" parent="1">
          <mxGeometry x="230" y="805" width="54" height="30" as="geometry" />
        </mxCell>
        <mxCell id="r2FGRi74jd80nOv4xDd8-14" value="&lt;b&gt;word_2&lt;/b&gt;" style="rounded=0;whiteSpace=wrap;html=1;strokeWidth=2;fillColor=#fff2cc;strokeColor=#d6b656;" vertex="1" parent="1">
          <mxGeometry x="326" y="805" width="54" height="30" as="geometry" />
        </mxCell>
        <mxCell id="r2FGRi74jd80nOv4xDd8-16" value="&lt;b&gt;word_3&lt;/b&gt;" style="rounded=0;whiteSpace=wrap;html=1;strokeWidth=2;fillColor=#fff2cc;strokeColor=#d6b656;" vertex="1" parent="1">
          <mxGeometry x="422" y="805" width="54" height="30" as="geometry" />
        </mxCell>
        <mxCell id="r2FGRi74jd80nOv4xDd8-17" style="edgeStyle=orthogonalEdgeStyle;rounded=0;orthogonalLoop=1;jettySize=auto;html=1;entryX=0.914;entryY=1;entryDx=0;entryDy=0;entryPerimeter=0;" edge="1" parent="1" target="r2FGRi74jd80nOv4xDd8-20">
          <mxGeometry relative="1" as="geometry">
            <mxPoint x="554" y="750" as="targetPoint" />
            <mxPoint x="555" y="805" as="sourcePoint" />
            <Array as="points">
              <mxPoint x="554" y="805" />
            </Array>
          </mxGeometry>
        </mxCell>
        <mxCell id="r2FGRi74jd80nOv4xDd8-18" value="&lt;b&gt;partial&lt;br&gt;word_n&lt;/b&gt;" style="rounded=0;whiteSpace=wrap;html=1;strokeWidth=2;fillColor=#fff2cc;strokeColor=#d6b656;" vertex="1" parent="1">
          <mxGeometry x="518" y="805" width="94" height="31" as="geometry" />
        </mxCell>
        <mxCell id="r2FGRi74jd80nOv4xDd8-19" value="" style="endArrow=none;dashed=1;html=1;dashPattern=1 3;strokeWidth=3;fillColor=#fff2cc;strokeColor=#d6b656;endSize=12;startSize=12;" edge="1" parent="1">
          <mxGeometry width="50" height="50" relative="1" as="geometry">
            <mxPoint x="470" y="793" as="sourcePoint" />
            <mxPoint x="552" y="793" as="targetPoint" />
          </mxGeometry>
        </mxCell>
        <mxCell id="r2FGRi74jd80nOv4xDd8-20" value="&lt;b&gt;Vocabulary Learner&lt;/b&gt;" style="rounded=1;whiteSpace=wrap;html=1;fillColor=#cdeb8b;strokeColor=#36393d;" vertex="1" parent="1">
          <mxGeometry x="234" y="680" width="350" height="60" as="geometry" />
        </mxCell>
        <mxCell id="r2FGRi74jd80nOv4xDd8-23" value="" style="endArrow=classic;html=1;entryX=0.343;entryY=1.034;entryDx=0;entryDy=0;entryPerimeter=0;" edge="1" parent="1" target="r2FGRi74jd80nOv4xDd8-20">
          <mxGeometry width="50" height="50" relative="1" as="geometry">
            <mxPoint x="354" y="805" as="sourcePoint" />
            <mxPoint x="354.54999999999995" y="741.98" as="targetPoint" />
          </mxGeometry>
        </mxCell>
        <mxCell id="r2FGRi74jd80nOv4xDd8-24" value="" style="endArrow=classic;html=1;entryX=0.333;entryY=1.033;entryDx=0;entryDy=0;entryPerimeter=0;" edge="1" parent="1">
          <mxGeometry width="50" height="50" relative="1" as="geometry">
            <mxPoint x="448.73" y="805" as="sourcePoint" />
            <mxPoint x="449.28" y="741.98" as="targetPoint" />
          </mxGeometry>
        </mxCell>
        <mxCell id="r2FGRi74jd80nOv4xDd8-25" value="&lt;b&gt;Transformer Encoder&lt;/b&gt;" style="rounded=1;whiteSpace=wrap;html=1;fillColor=#cdeb8b;strokeColor=#36393d;" vertex="1" parent="1">
          <mxGeometry x="234" y="560" width="350" height="60" as="geometry" />
        </mxCell>
        <mxCell id="r2FGRi74jd80nOv4xDd8-27" value="" style="endArrow=classic;html=1;entryX=0.066;entryY=1;entryDx=0;entryDy=0;entryPerimeter=0;" edge="1" parent="1" target="r2FGRi74jd80nOv4xDd8-25">
          <mxGeometry width="50" height="50" relative="1" as="geometry">
            <mxPoint x="256.65999999999997" y="680" as="sourcePoint" />
            <mxPoint x="257" y="630" as="targetPoint" />
          </mxGeometry>
        </mxCell>
        <mxCell id="r2FGRi74jd80nOv4xDd8-28" value="" style="endArrow=classic;html=1;entryX=0.066;entryY=1;entryDx=0;entryDy=0;entryPerimeter=0;" edge="1" parent="1">
          <mxGeometry width="50" height="50" relative="1" as="geometry">
            <mxPoint x="352.7800000000001" y="680" as="sourcePoint" />
            <mxPoint x="353.22" y="620" as="targetPoint" />
          </mxGeometry>
        </mxCell>
        <mxCell id="r2FGRi74jd80nOv4xDd8-29" value="" style="endArrow=classic;html=1;entryX=0.066;entryY=1;entryDx=0;entryDy=0;entryPerimeter=0;" edge="1" parent="1">
          <mxGeometry width="50" height="50" relative="1" as="geometry">
            <mxPoint x="448.7800000000001" y="680" as="sourcePoint" />
            <mxPoint x="449.22" y="620" as="targetPoint" />
          </mxGeometry>
        </mxCell>
        <mxCell id="r2FGRi74jd80nOv4xDd8-30" value="" style="endArrow=classic;html=1;entryX=0.066;entryY=1;entryDx=0;entryDy=0;entryPerimeter=0;" edge="1" parent="1">
          <mxGeometry width="50" height="50" relative="1" as="geometry">
            <mxPoint x="555.0000000000001" y="680" as="sourcePoint" />
            <mxPoint x="555.44" y="620" as="targetPoint" />
          </mxGeometry>
        </mxCell>
        <mxCell id="r2FGRi74jd80nOv4xDd8-31" value="&lt;table border=&quot;1&quot; width=&quot;100%&quot; style=&quot;width: 100% ; height: 100% ; border-collapse: collapse&quot;&gt;&lt;tbody&gt;&lt;tr&gt;&lt;td align=&quot;center&quot;&gt;&lt;br&gt;&lt;/td&gt;&lt;td align=&quot;center&quot;&gt;&lt;br&gt;&lt;/td&gt;&lt;td align=&quot;center&quot;&gt;&lt;/td&gt;&lt;td&gt;&lt;br&gt;&lt;/td&gt;&lt;/tr&gt;&lt;/tbody&gt;&lt;/table&gt;" style="text;html=1;overflow=fill;fillColor=#dae8fc;strokeWidth=2;strokeColor=#6c8ebf;" vertex="1" parent="1">
          <mxGeometry x="408.5" y="480" width="81" height="20" as="geometry" />
        </mxCell>
        <mxCell id="r2FGRi74jd80nOv4xDd8-32" value="" style="endArrow=classic;html=1;entryX=0.066;entryY=1;entryDx=0;entryDy=0;entryPerimeter=0;" edge="1" parent="1">
          <mxGeometry width="50" height="50" relative="1" as="geometry">
            <mxPoint x="256.65999999999985" y="560" as="sourcePoint" />
            <mxPoint x="257.0999999999999" y="500" as="targetPoint" />
          </mxGeometry>
        </mxCell>
        <mxCell id="r2FGRi74jd80nOv4xDd8-33" value="" style="endArrow=classic;html=1;entryX=0.066;entryY=1;entryDx=0;entryDy=0;entryPerimeter=0;" edge="1" parent="1">
          <mxGeometry width="50" height="50" relative="1" as="geometry">
            <mxPoint x="352.6600000000002" y="560" as="sourcePoint" />
            <mxPoint x="353.1" y="500" as="targetPoint" />
          </mxGeometry>
        </mxCell>
        <mxCell id="r2FGRi74jd80nOv4xDd8-34" value="" style="endArrow=classic;html=1;entryX=0.066;entryY=1;entryDx=0;entryDy=0;entryPerimeter=0;" edge="1" parent="1">
          <mxGeometry width="50" height="50" relative="1" as="geometry">
            <mxPoint x="448.65999999999997" y="560" as="sourcePoint" />
            <mxPoint x="449.1" y="500" as="targetPoint" />
          </mxGeometry>
        </mxCell>
        <mxCell id="r2FGRi74jd80nOv4xDd8-35" value="" style="endArrow=classic;html=1;entryX=0.066;entryY=1;entryDx=0;entryDy=0;entryPerimeter=0;" edge="1" parent="1">
          <mxGeometry width="50" height="50" relative="1" as="geometry">
            <mxPoint x="555" y="560" as="sourcePoint" />
            <mxPoint x="555.4400000000003" y="500" as="targetPoint" />
          </mxGeometry>
        </mxCell>
        <mxCell id="r2FGRi74jd80nOv4xDd8-36" value="" style="endArrow=none;dashed=1;html=1;dashPattern=1 3;strokeWidth=2;" edge="1" parent="1">
          <mxGeometry width="50" height="50" relative="1" as="geometry">
            <mxPoint x="457.5" y="530" as="sourcePoint" />
            <mxPoint x="550" y="530" as="targetPoint" />
            <Array as="points">
              <mxPoint x="479.5" y="530" />
            </Array>
          </mxGeometry>
        </mxCell>
        <mxCell id="r2FGRi74jd80nOv4xDd8-37" value="" style="endArrow=none;dashed=1;html=1;dashPattern=1 3;strokeWidth=2;fillColor=#1ba1e2;strokeColor=#006EAF;" edge="1" parent="1">
          <mxGeometry width="50" height="50" relative="1" as="geometry">
            <mxPoint x="540" y="489.83" as="sourcePoint" />
            <mxPoint x="580" y="490" as="targetPoint" />
            <Array as="points">
              <mxPoint x="562" y="489.83" />
            </Array>
          </mxGeometry>
        </mxCell>
        <mxCell id="r2FGRi74jd80nOv4xDd8-38" value="" style="endArrow=none;dashed=1;html=1;dashPattern=1 3;strokeWidth=2;fillColor=#1ba1e2;strokeColor=#006EAF;" edge="1" parent="1">
          <mxGeometry width="50" height="50" relative="1" as="geometry">
            <mxPoint x="336.75" y="489.8299999999999" as="sourcePoint" />
            <mxPoint x="370" y="490" as="targetPoint" />
            <Array as="points">
              <mxPoint x="358.75" y="489.83" />
            </Array>
          </mxGeometry>
        </mxCell>
        <mxCell id="r2FGRi74jd80nOv4xDd8-39" value="" style="endArrow=none;dashed=1;html=1;dashPattern=1 3;strokeWidth=2;fillColor=#1ba1e2;strokeColor=#006EAF;" edge="1" parent="1">
          <mxGeometry width="50" height="50" relative="1" as="geometry">
            <mxPoint x="240.75" y="489.8299999999999" as="sourcePoint" />
            <mxPoint x="280" y="490" as="targetPoint" />
            <Array as="points">
              <mxPoint x="262.75" y="489.83" />
            </Array>
          </mxGeometry>
        </mxCell>
        <mxCell id="r2FGRi74jd80nOv4xDd8-40" value="&lt;b&gt;Terminal Coordinator&lt;/b&gt;" style="rounded=1;whiteSpace=wrap;html=1;fillColor=#cdeb8b;strokeColor=#36393d;" vertex="1" parent="1">
          <mxGeometry x="234" y="350" width="350" height="60" as="geometry" />
        </mxCell>
        <mxCell id="r2FGRi74jd80nOv4xDd8-41" value="" style="endArrow=classic;html=1;entryX=0.361;entryY=1.045;entryDx=0;entryDy=0;entryPerimeter=0;" edge="1" parent="1" target="r2FGRi74jd80nOv4xDd8-40">
          <mxGeometry width="50" height="50" relative="1" as="geometry">
            <mxPoint x="260" y="480" as="sourcePoint" />
            <mxPoint x="310" y="430" as="targetPoint" />
          </mxGeometry>
        </mxCell>
        <mxCell id="r2FGRi74jd80nOv4xDd8-42" value="" style="endArrow=classic;html=1;" edge="1" parent="1">
          <mxGeometry width="50" height="50" relative="1" as="geometry">
            <mxPoint x="353.5" y="480" as="sourcePoint" />
            <mxPoint x="380" y="413" as="targetPoint" />
          </mxGeometry>
        </mxCell>
        <mxCell id="r2FGRi74jd80nOv4xDd8-43" value="" style="endArrow=classic;html=1;" edge="1" parent="1">
          <mxGeometry width="50" height="50" relative="1" as="geometry">
            <mxPoint x="449.5" y="477" as="sourcePoint" />
            <mxPoint x="450" y="410" as="targetPoint" />
          </mxGeometry>
        </mxCell>
        <mxCell id="r2FGRi74jd80nOv4xDd8-44" value="" style="endArrow=classic;html=1;" edge="1" parent="1">
          <mxGeometry width="50" height="50" relative="1" as="geometry">
            <mxPoint x="557.5" y="480" as="sourcePoint" />
            <mxPoint x="500" y="413" as="targetPoint" />
          </mxGeometry>
        </mxCell>
        <mxCell id="r2FGRi74jd80nOv4xDd8-45" value="&lt;b&gt;&lt;font style=&quot;font-size: 14px&quot;&gt;Dense and &lt;br&gt;Softmax Layer&lt;/font&gt;&lt;/b&gt;" style="rounded=1;whiteSpace=wrap;html=1;fillColor=#dae8fc;strokeColor=#6c8ebf;" vertex="1" parent="1">
          <mxGeometry x="349" y="220" width="120" height="60" as="geometry" />
        </mxCell>
        <mxCell id="r2FGRi74jd80nOv4xDd8-46" value="&lt;font style=&quot;font-size: 14px&quot;&gt;&lt;b&gt;Word(N)&lt;/b&gt;&lt;/font&gt;" style="rounded=0;whiteSpace=wrap;html=1;fillColor=#e1d5e7;strokeColor=#9673a6;" vertex="1" parent="1">
          <mxGeometry x="359" y="140" width="101" height="40" as="geometry" />
        </mxCell>
        <mxCell id="r2FGRi74jd80nOv4xDd8-47" value="" style="endArrow=classic;html=1;exitX=0.5;exitY=0;exitDx=0;exitDy=0;" edge="1" parent="1" source="r2FGRi74jd80nOv4xDd8-45" target="r2FGRi74jd80nOv4xDd8-46">
          <mxGeometry width="50" height="50" relative="1" as="geometry">
            <mxPoint x="16.5" y="200" as="sourcePoint" />
            <mxPoint x="391.5" y="150" as="targetPoint" />
            <Array as="points" />
          </mxGeometry>
        </mxCell>
        <mxCell id="r2FGRi74jd80nOv4xDd8-48" value="" style="endArrow=classic;html=1;entryX=0.425;entryY=1.036;entryDx=0;entryDy=0;entryPerimeter=0;" edge="1" parent="1">
          <mxGeometry width="50" height="50" relative="1" as="geometry">
            <mxPoint x="409" y="350" as="sourcePoint" />
            <mxPoint x="408.9999999999998" y="282.15999999999997" as="targetPoint" />
          </mxGeometry>
        </mxCell>
        <mxCell id="r2FGRi74jd80nOv4xDd8-49" value="" style="strokeWidth=2;html=1;shape=mxgraph.flowchart.annotation_1;align=left;pointerEvents=1;fillColor=#ffffff;gradientColor=#ffffff;rotation=-180;" vertex="1" parent="1">
          <mxGeometry x="600" y="479.5" width="18" height="71" as="geometry" />
        </mxCell>
        <mxCell id="r2FGRi74jd80nOv4xDd8-50" value="&lt;b&gt;Attention vectors&lt;/b&gt;" style="text;html=1;strokeColor=none;fillColor=none;align=center;verticalAlign=middle;whiteSpace=wrap;rounded=0;" vertex="1" parent="1">
          <mxGeometry x="630" y="505" width="40" height="20" as="geometry" />
        </mxCell>
        <mxCell id="r2FGRi74jd80nOv4xDd8-51" value="" style="strokeWidth=2;html=1;shape=mxgraph.flowchart.annotation_1;align=left;pointerEvents=1;fillColor=#ffffff;gradientColor=#ffffff;rotation=-180;" vertex="1" parent="1">
          <mxGeometry x="594" y="278.5" width="18" height="71.5" as="geometry" />
        </mxCell>
        <mxCell id="r2FGRi74jd80nOv4xDd8-52" value="&lt;b&gt;Flattened Coordination vector&lt;/b&gt;" style="text;html=1;strokeColor=none;fillColor=none;align=center;verticalAlign=middle;whiteSpace=wrap;rounded=0;" vertex="1" parent="1">
          <mxGeometry x="640" y="304.25" width="40" height="20" as="geometry" />
        </mxCell>
        <mxCell id="r2FGRi74jd80nOv4xDd8-53" value="" style="strokeWidth=2;html=1;shape=mxgraph.flowchart.annotation_1;align=left;pointerEvents=1;fillColor=#ffffff;gradientColor=#ffffff;rotation=-180;" vertex="1" parent="1">
          <mxGeometry x="600" y="620" width="18" height="61" as="geometry" />
        </mxCell>
        <mxCell id="r2FGRi74jd80nOv4xDd8-54" value="&lt;b&gt;CNNvecs&lt;/b&gt;" style="text;html=1;strokeColor=none;fillColor=none;align=center;verticalAlign=middle;whiteSpace=wrap;rounded=0;" vertex="1" parent="1">
          <mxGeometry x="630" y="640.5" width="40" height="20" as="geometry" />
        </mxCell>
      </root>
    </mxGraphModel>
  </diagram>
</mxfile>
